<svg xmlns="http://www.w3.org/2000/svg" viewBox="0 0 32 32">
  <rect width="32" height="32" rx="6" fill="#0f172a"/>
  <g transform="translate(4, 4) scale(0.6)">
    <path d="M20 0L37.32 10L37.32 30L20 40L2.68 30L2.68 10Z" stroke="#0284c7" stroke-width="2.5" fill="none"/>
    <circle cx="20" cy="20" r="6" fill="#0284c7"/>
    <line x1="20" y1="20" x2="20" y2="2" stroke="#0284c7" stroke-width="2" opacity="0.5"/>
    <line x1="20" y1="20" x2="35.6" y2="11" stroke="#0284c7" stroke-width="2" opacity="0.5"/>
    <line x1="20" y1="20" x2="35.6" y2="29" stroke="#0284c7" stroke-width="2" opacity="0.5"/>
    <line x1="20" y1="20" x2="20" y2="38" stroke="#0284c7" stroke-width="2" opacity="0.5"/>
    <line x1="20" y1="20" x2="4.4" y2="29" stroke="#0284c7" stroke-width="2" opacity="0.5"/>
    <line x1="20" y1="20" x2="4.4" y2="11" stroke="#0284c7" stroke-width="2" opacity="0.5"/>
    <circle cx="20" cy="2" r="3" fill="#0284c7" opacity="0.7"/>
    <circle cx="35.6" cy="11" r="3" fill="#0284c7" opacity="0.7"/>
    <circle cx="35.6" cy="29" r="3" fill="#0284c7" opacity="0.7"/>
    <circle cx="20" cy="38" r="3" fill="#0284c7" opacity="0.7"/>
    <circle cx="4.4" cy="29" r="3" fill="#0284c7" opacity="0.7"/>
    <circle cx="4.4" cy="11" r="3" fill="#0284c7" opacity="0.7"/>
  </g>
</svg>
